<?xml version="1.0" encoding="UTF-8" standalone="no"?>
<!-- Generator: Adobe Illustrator 19.0.0, SVG Export Plug-In . SVG Version: 6.00 Build 0)  -->

<svg
   xmlns:dc="http://purl.org/dc/elements/1.1/"
   xmlns:cc="http://creativecommons.org/ns#"
   xmlns:rdf="http://www.w3.org/1999/02/22-rdf-syntax-ns#"
   xmlns:svg="http://www.w3.org/2000/svg"
   xmlns="http://www.w3.org/2000/svg"
   xmlns:sodipodi="http://sodipodi.sourceforge.net/DTD/sodipodi-0.dtd"
   xmlns:inkscape="http://www.inkscape.org/namespaces/inkscape"
   version="1.1"
   id="Layer_1"
   x="0px"
   y="0px"
   viewBox="0 0 511.756 511.756"
   style="enable-background:new 0 0 511.756 511.756;"
   xml:space="preserve"
   sodipodi:docname="object_arronditotal.svg"
   inkscape:version="0.92.5 (2060ec1f9f, 2020-04-08)"
   inkscape:export-filename="/home/john/WWW/dolibarr/htdocs/custom/arronditotal/img/logo arronditotal.png"
   inkscape:export-xdpi="192.09154"
   inkscape:export-ydpi="192.09154"><metadata
   id="metadata107"><rdf:RDF><cc:Work
       rdf:about=""><dc:format>image/svg+xml</dc:format><dc:type
         rdf:resource="http://purl.org/dc/dcmitype/StillImage" /></cc:Work></rdf:RDF></metadata><defs
   id="defs105">
	
	
	
	
	
	
	
	
	
	
	
	
	
	
	
	
	
	
	
	
	
	
	
	
	
	
	
	
</defs><sodipodi:namedview
   pagecolor="#505050"
   bordercolor="#ffffff"
   borderopacity="1"
   objecttolerance="10"
   gridtolerance="10"
   guidetolerance="10"
   inkscape:pageopacity="0"
   inkscape:pageshadow="2"
   inkscape:window-width="1920"
   inkscape:window-height="1011"
   id="namedview103"
   showgrid="false"
   inkscape:zoom="0.65217485"
   inkscape:cx="-221.32811"
   inkscape:cy="259.48845"
   inkscape:window-x="1920"
   inkscape:window-y="0"
   inkscape:window-maximized="1"
   inkscape:current-layer="Layer_1" />
<circle
   style="fill:#ffffff;fill-opacity:1;stroke:#cb4f24;stroke-width:27.43528175;stroke-miterlimit:0;stroke-dasharray:none;stroke-dashoffset:0;stroke-opacity:1"
   id="path975"
   cx="122.45445"
   cy="362.99377"
   r="103.2812" /><path
   inkscape:connector-curvature="0"
   id="path2"
   d="m 321.68656,191.07111 c -90.96316,0 -163.7324,-16.37324 -163.7324,-34.56502 v 72.76924 c 0,20.01246 72.76924,34.56503 163.7324,34.56503 90.96315,0 163.7324,-16.37325 163.7324,-34.56503 v -72.76924 c 0,18.19178 -72.76925,34.56502 -163.7324,34.56502 z"
   style="fill:#ffffff;stroke-width:2.13193226" /><path
   inkscape:connector-curvature="0"
   id="path4"
   d="m 321.68656,282.03213 c -169.19015,0 -181.92419,-40.02276 -181.92419,-52.75893 v -72.76924 h 36.38569 c 0,-3.63921 -1.81853,-5.45775 -1.81853,-5.45775 7.27628,7.27629 60.03521,21.83099 147.35916,21.83099 87.32395,0 140.08287,-14.5547 147.35916,-21.83099 0,0 -1.81854,1.81854 -1.81854,5.45775 H 503.615 v 72.76924 c -0.004,12.73617 -12.7383,52.75893 -181.92844,52.75893 z m -145.54062,-56.396 c 10.91549,7.27628 63.67441,20.01244 145.54062,20.01244 81.8662,0 134.62512,-12.73402 145.54062,-20.01244 v -34.56502 c -25.4702,9.09696 -70.95071,18.19177 -145.54062,18.19177 -74.58992,0 -120.07043,-7.27628 -145.54062,-18.19177 z"
   style="fill:#cb4f24;fill-opacity:1;stroke-width:2.13193226" /><path
   inkscape:connector-curvature="0"
   id="path6"
   d="M 157.95416,156.50396 Z"
   style="fill:#ffffff;stroke-width:2.13193226" /><path
   inkscape:connector-curvature="0"
   id="path8"
   d="M 176.14594,156.50396 H 139.76025 Z"
   style="fill:#0096e6;stroke-width:2.13193226" /><path
   inkscape:connector-curvature="0"
   id="path10"
   d="M 485.41896,156.50396 Z"
   style="fill:#00384e;fill-opacity:1;stroke-width:2.13193226" /><path
   inkscape:connector-curvature="0"
   id="path12"
   d="M 503.61074,156.50396 H 467.22505 Z"
   style="fill:#00384e;fill-opacity:1;stroke-width:2.13193226" /><path
   inkscape:connector-curvature="0"
   d="m 485.41896,83.734714 c 0,20.012446 -72.76925,34.565026 -163.7324,34.565026 -90.96316,0 -163.7324,-16.37325 -163.7324,-34.565026 0,-20.01245 72.76924,-56.396006 163.7324,-56.396006 90.96315,0 163.7324,36.383556 163.7324,56.396006 z"
   style="fill:#ffffff;stroke-width:2.13193226"
   id="SVGCleanerId_0" /><path
   inkscape:connector-curvature="0"
   d="m 321.68656,136.49364 c -169.19015,0 -181.92419,-40.02277 -181.92419,-52.758926 0,-36.38569 90.96316,-74.589917 181.92419,-74.589917 90.96102,0 181.92418,38.204227 181.92418,74.589917 0,12.734036 -12.73404,52.758926 -181.92418,52.758926 z M 181.60368,81.916176 c 18.19178,7.27628 65.49296,18.191774 140.08288,18.191774 74.58991,0 123.70963,-10.915494 140.08287,-18.191774 -16.37324,-12.734033 -69.13217,-36.38569 -140.08287,-36.38569 -70.95071,0 -123.70964,23.649525 -140.08288,36.38569 z m 285.6235,5.457742 z"
   style="fill:#0096e6;stroke-width:2.13193226"
   id="SVGCleanerId_1" /><path
   inkscape:connector-curvature="0"
   id="path16"
   d="m 321.68656,118.29974 c -90.96316,0 -163.7324,-16.37325 -163.7324,-34.565026 v 72.769246 c 0,20.01244 72.76924,34.56501 163.7324,34.56501 90.96315,0 163.7324,-16.37323 163.7324,-34.56501 V 83.734714 c 0,18.191776 -72.76925,34.565026 -163.7324,34.565026 z"
   style="fill:#ffffff;stroke-width:2.13193226" /><path
   inkscape:connector-curvature="0"
   id="path18"
   d="m 321.68656,209.26288 c -169.19015,0 -181.92419,-40.02276 -181.92419,-52.75892 V 83.734714 h 36.38569 c 0,-3.639214 -1.81853,-5.457752 -1.81853,-5.457752 7.27628,7.276291 60.03521,21.830988 147.35916,21.830988 87.32395,0 140.08287,-14.554697 147.35916,-21.830988 0,0 -1.81854,1.818538 -1.81854,5.457752 H 503.615 v 72.769246 c -0.004,12.73616 -12.7383,52.75892 -181.92844,52.75892 z m -145.54062,-56.396 c 10.91549,7.27628 63.67441,20.01245 145.54062,20.01245 81.8662,0 134.62512,-12.73403 145.54062,-20.01245 v -34.56502 c -25.4702,9.09696 -70.95071,18.19178 -145.54062,18.19178 -74.58992,0 -120.07043,-7.27628 -145.54062,-18.19178 z"
   style="fill:#cb4f24;fill-opacity:1;stroke-width:2.13193226" /><path
   inkscape:connector-curvature="0"
   id="path20"
   d="M 157.95416,83.734714 Z"
   style="fill:#ffffff;stroke-width:2.13193226" /><path
   inkscape:connector-curvature="0"
   id="path22"
   d="M 176.14594,83.734714 H 139.76025 Z"
   style="fill:#0096e6;stroke-width:2.13193226" /><path
   inkscape:connector-curvature="0"
   id="path24"
   d="M 485.41896,83.734714 Z"
   style="fill:#00384e;fill-opacity:1;stroke-width:2.13193226" /><g
   id="g41"
   transform="matrix(2.1319323,0,0,2.1319323,-567.92615,-581.2768)">
		<path
   inkscape:connector-curvature="0"
   d="m 494.08,311.929 c 0,9.387 -34.133,16.213 -76.8,16.213 -42.667,0 -76.8,-7.68 -76.8,-16.213 0,-9.387 34.133,-26.453 76.8,-26.453 42.667,0 76.8,17.066 76.8,26.453 z"
   style="fill:#ffffff"
   id="SVGCleanerId_0_1_" />
	</g><g
   id="g44"
   transform="matrix(2.1319323,0,0,2.1319323,-567.92615,-581.2768)"
   style="fill:#cb4f24;fill-opacity:1">
		<path
   inkscape:connector-curvature="0"
   d="m 417.28,336.676 c -79.36,0 -85.333,-18.773 -85.333,-24.747 0,-17.067 42.667,-34.987 85.333,-34.987 42.666,0 85.333,17.92 85.333,34.987 0,5.973 -5.973,24.747 -85.333,24.747 z m -65.707,-25.6 c 8.533,3.413 30.72,8.533 65.707,8.533 34.987,0 58.027,-5.12 65.707,-8.533 -7.68,-5.973 -32.427,-17.067 -65.707,-17.067 -33.28,0 -58.027,11.093 -65.707,17.067 z m 133.974,2.56 z"
   style="fill:#cb4f24;fill-opacity:1"
   id="SVGCleanerId_1_1_" />
	</g><path
   inkscape:connector-curvature="0"
   id="path46"
   d="m 321.68656,409.38098 c -36.38569,0 -70.95071,-1.81854 -98.23944,-7.27629 -9.09696,25.4702 -23.64953,47.30119 -45.48052,61.85375 27.28874,10.91549 81.8662,18.19178 141.90142,18.19178 90.96316,0 163.7324,-16.37324 163.7324,-34.56502 v -72.76924 c 1.81854,18.19178 -70.95071,34.56502 -161.91386,34.56502 z"
   style="fill:#ffffff;stroke-width:2.13193226" /><path
   inkscape:connector-curvature="0"
   id="path48"
   d="m 321.68656,500.342 c -61.85376,0 -118.25189,-7.27628 -149.1777,-18.19178 l -30.92795,-10.91549 27.28874,-20.01245 c 18.19178,-12.73403 30.92794,-30.92794 38.20423,-52.75893 l 5.45774,-14.5547 14.5547,1.81854 c 27.28874,3.6392 60.03521,7.27628 94.60024,7.27628 87.32394,0 140.08287,-14.5547 147.35916,-21.83098 0,0 -1.81854,1.81854 -1.81854,5.45774 h 36.38568 v 72.76925 c -0.002,10.91976 -12.73616,50.94252 -181.9263,50.94252 z m -107.3364,-45.48052 c 29.10727,5.45776 65.49296,9.09696 107.3364,9.09696 81.8662,0 134.62512,-12.73403 145.54062,-20.01244 v -34.56502 c -25.4702,9.09695 -70.95071,18.19177 -145.54062,18.19177 -30.92795,0 -60.03522,-1.81854 -85.50541,-5.45774 -5.45775,12.73403 -12.73403,23.64953 -21.83099,32.74647 z m 252.87702,-80.04765 z"
   style="fill:#cb4f24;fill-opacity:1;stroke-width:2.13193226" /><path
   inkscape:connector-curvature="0"
   id="path50"
   d="m 321.68656,263.84036 c -90.96316,0 -163.7324,-16.37325 -163.7324,-34.56503 v 18.19178 c 32.74647,16.37325 58.21668,45.48052 69.13216,83.68474 27.28874,3.63922 60.03521,7.27628 94.60024,7.27628 90.96315,0 163.7324,-16.37323 163.7324,-34.56501 v -72.76925 c 0,16.37324 -72.76925,32.74649 -163.7324,32.74649 z"
   style="fill:#ffffff;stroke-width:2.13193226" /><path
   inkscape:connector-curvature="0"
   id="path52"
   d="m 321.68656,354.80351 c -34.56503,0 -69.13217,-1.81854 -98.23944,-7.27629 l -10.9155,-1.81853 -3.6392,-10.9155 c -7.27629,-30.92794 -29.10728,-56.396 -58.21668,-70.95071 l -10.91549,-5.45774 v -29.10727 h 36.38569 c 0,-3.63921 -1.81854,-5.45775 -1.81854,-5.45775 7.27628,7.27629 60.03521,21.83099 147.35916,21.83099 87.32394,0 140.08287,-14.5547 147.35916,-21.83099 0,0 -1.81854,1.81854 -1.81854,5.45775 h 36.38568 v 72.76924 c -0.002,12.73191 -12.73616,52.7568 -181.9263,52.7568 z m -81.86621,-41.84343 c 23.64953,3.6392 52.75894,5.45774 81.86621,5.45774 83.68474,0 134.62512,-12.73403 145.54062,-20.01245 v -34.56501 c -25.4702,9.09695 -70.95071,18.19177 -145.54062,18.19177 -43.66197,0 -76.40845,-1.81854 -101.87865,-7.27628 9.09695,12.73402 16.37324,25.47019 20.01244,38.20423 z"
   style="fill:#cb4f24;fill-opacity:1;stroke-width:2.13193226" /><path
   inkscape:connector-curvature="0"
   id="path54"
   d="m 321.68656,336.6096 c -36.38569,0 -69.13217,-1.81853 -94.60024,-7.27629 1.81854,10.9155 3.63921,21.83099 3.63921,32.74649 0,14.55469 -1.81854,27.28873 -7.27628,40.02276 27.28873,3.6392 60.03521,7.27628 98.23944,7.27628 90.96315,0 163.7324,-16.37324 163.7324,-34.56501 v -72.76925 c -0.002,18.19178 -72.77138,34.56502 -163.73453,34.56502 z"
   style="fill:#ffffff;stroke-width:2.13193226" /><path
   inkscape:connector-curvature="0"
   id="path56"
   d="m 321.68656,427.57275 c -36.38569,0 -70.95071,-1.81854 -100.05798,-7.27628 l -21.83099,-3.63921 7.27629,-20.01245 c 3.6392,-10.91549 5.45774,-23.64952 5.45774,-34.56501 0,-9.09696 -1.81854,-18.19179 -3.6392,-27.28873 l -7.27629,-27.28875 27.28873,3.63922 c 27.28874,3.6392 60.03521,5.45774 92.7817,5.45774 89.14248,0 140.08287,-14.5547 147.35916,-21.83099 0,0 -1.81854,1.81854 -1.81854,5.45775 h 36.38568 v 72.76925 c -0.002,14.5547 -12.73616,54.57746 -181.9263,54.57746 z m -74.58992,-40.02276 c 23.64953,1.81854 49.11972,3.63921 74.58992,3.63921 81.8662,0 134.62512,-12.73403 145.54062,-20.01245 v -34.56502 c -25.4702,9.09696 -70.95071,18.19178 -145.54062,18.19178 -25.4702,0 -50.93826,-1.81854 -72.76925,-3.63921 0,3.63921 0,7.27628 0,10.9155 0,9.09695 0,16.37323 -1.82067,25.47019 z"
   style="fill:#cb4f24;fill-opacity:1;stroke-width:2.13193226" />
<g
   id="g72">
</g>
<g
   id="g74">
</g>
<g
   id="g76">
</g>
<g
   id="g78">
</g>
<g
   id="g80">
</g>
<g
   id="g82">
</g>
<g
   id="g84">
</g>
<g
   id="g86">
</g>
<g
   id="g88">
</g>
<g
   id="g90">
</g>
<g
   id="g92">
</g>
<g
   id="g94">
</g>
<g
   id="g96">
</g>
<g
   id="g98">
</g>
<g
   id="g100">
</g>
<path
   inkscape:connector-curvature="0"
   d="m 98.969118,325.35496 q 6.826722,0.91656 13.174142,3.32239 l 26.58846,9.96694 q 6.10815,2.29123 10.06054,3.43691 6.34768,1.71836 11.13843,1.71836 8.74313,0 14.85141,-6.58742 6.10816,-6.58743 8.26396,-16.21088 h 13.89333 q -2.99415,16.2674 -11.79714,29.67246 -8.80296,13.40385 -26.6488,13.40385 -5.3895,0 -12.81455,-2.06213 -4.3116,-1.26028 -12.81457,-4.35346 l -24.43216,-8.93589 q -4.55122,-1.71838 -9.401824,-2.63493 -4.850587,-0.91652 -7.9646,-0.91652 -10.060522,0 -15.809471,7.44662 -3.353521,4.35344 -6.826846,14.7785 H 54.416648 q 2.035969,-9.50873 4.4314,-16.21089 2.395312,-6.70191 8.383785,-15.18019 5.030265,-5.72812 10.838938,-8.47767 5.808784,-2.74956 13.59411,-2.74956 3.473318,0 7.305879,0.57284 z"
   id="path952"
   style="fill:#00384e;fill-opacity:1;stroke-width:1.22969306" /><path
   style="fill:#00384e;fill-opacity:1;stroke-width:1.22969306"
   id="path994"
   d="m 98.969118,367.45783 q 6.826722,0.91656 13.174142,3.32239 l 26.58846,9.96693 q 6.10815,2.29123 10.06054,3.43691 6.34768,1.71837 11.13843,1.71837 8.74313,0 14.85141,-6.58743 6.10816,-6.58742 8.26396,-16.21087 h 13.89333 q -2.99415,16.2674 -11.79714,29.67246 -8.80296,13.40384 -26.6488,13.40384 -5.3895,0 -12.81455,-2.06212 -4.3116,-1.26029 -12.81457,-4.35346 l -24.43216,-8.93589 q -4.55122,-1.71839 -9.401824,-2.63493 -4.850587,-0.91652 -7.9646,-0.91652 -10.060522,0 -15.809471,7.44662 -3.353521,4.35343 -6.826846,14.77849 H 54.416648 q 2.035969,-9.50872 4.4314,-16.21088 2.395312,-6.70192 8.383785,-15.18019 5.030265,-5.72812 10.838938,-8.47768 5.808784,-2.74956 13.59411,-2.74956 3.473318,0 7.305879,0.57284 z"
   inkscape:connector-curvature="0" /></svg>